<svg width="29" height="29" viewBox="0 0 29 29" fill="none" xmlns="http://www.w3.org/2000/svg">
<path fill-rule="evenodd" clip-rule="evenodd" d="M14.5 17.5643C15.7414 17.5643 16.8654 18.0677 17.679 18.8812C18.3666 19.5691 18.8326 20.4785 18.9604 21.4931H25.0657C25.8352 21.4931 26.535 21.1781 27.0428 20.6701C27.5506 20.1623 27.8659 19.4625 27.8659 18.693C27.8659 17.9626 27.534 17.4303 27.0297 17.0092C26.4633 16.5366 25.6682 16.1804 24.8528 15.8505L14.5 11.6624L9.85879 13.54C9.78976 13.5699 9.71387 13.5862 9.634 13.5862C9.32114 13.5862 9.06759 13.3327 9.06759 13.0198C9.06759 12.7775 9.21981 12.5709 9.43376 12.4899L14.2874 10.5265C14.3035 10.5201 14.3197 10.5141 14.3358 10.5093C15.1022 10.2254 16.026 9.61076 16.7017 8.80872C17.223 8.18988 17.5871 7.46484 17.5871 6.71346C17.5871 5.86098 17.2415 5.08903 16.6829 4.53036C16.1244 3.97192 15.3525 3.62633 14.5 3.62633C13.6475 3.62633 12.8756 3.97192 12.3171 4.53036C11.7585 5.08903 11.4129 5.86098 11.4129 6.71346C11.4129 7.02654 11.1591 7.28053 10.8458 7.28053C10.5325 7.28053 10.2787 7.02676 10.2787 6.71346C10.2787 5.5479 10.7513 4.49253 11.5151 3.72855C12.2791 2.96478 13.3344 2.49219 14.5 2.49219C15.6656 2.49219 16.7209 2.96478 17.4849 3.72855C18.2487 4.49253 18.7213 5.54768 18.7213 6.71346C18.7213 7.75689 18.2458 8.72752 17.5655 9.53532C17.0758 10.1163 16.4749 10.6159 15.8715 10.9954L25.2783 14.8007C26.1799 15.1653 27.0682 15.5667 27.7563 16.141C28.5064 16.7672 29 17.5712 29 18.693C29 19.7753 28.5575 20.7592 27.8446 21.4719C27.132 22.1848 26.1481 22.6273 25.0657 22.6273H18.9604C18.8326 23.6419 18.3666 24.5515 17.679 25.2392C16.8654 26.0527 15.7414 26.556 14.5 26.556C13.2586 26.556 12.1346 26.0527 11.321 25.2392C10.6334 24.5513 10.1674 23.6419 10.0396 22.6273H3.93431C2.85194 22.6273 1.86826 22.1848 1.15538 21.4719C0.442505 20.7592 0 19.7755 0 18.693C0 17.5247 0.5476 16.6999 1.32287 16.0764C2.03619 15.5029 2.92075 15.1248 3.72169 14.8007L5.27753 14.1714C5.34634 14.1416 5.42245 14.125 5.50233 14.125C5.81518 14.125 6.06873 14.3785 6.06873 14.6914C6.06873 14.9246 5.9278 15.1248 5.72668 15.2118L5.72535 15.2122C5.71871 15.2151 5.71185 15.218 5.70477 15.2206L4.14716 15.8507C3.41924 16.1452 2.61985 16.4853 2.03176 16.9581C1.50584 17.3811 1.13414 17.9307 1.13414 18.6932C1.13414 19.4625 1.44942 20.1625 1.9572 20.6703C2.46497 21.1781 3.16502 21.4933 3.93431 21.4933H10.0396C10.1674 20.4787 10.6334 19.5691 11.321 18.8815C12.1346 18.0677 13.2586 17.5643 14.5 17.5643ZM7.55334 13.2953C7.24049 13.2953 6.98693 13.5488 6.98693 13.8617C6.98693 14.1745 7.24049 14.4281 7.55334 14.4281C7.86619 14.4281 8.11974 14.1745 8.11974 13.8617C8.11974 13.5488 7.86619 13.2953 7.55334 13.2953ZM13.9329 20.4147V21.4931H12.8545C12.5415 21.4931 12.2875 21.7471 12.2875 22.0602C12.2875 22.3735 12.5413 22.6273 12.8545 22.6273H13.9329V23.7057C13.9329 24.0189 14.1867 24.2727 14.5 24.2727C14.8131 24.2727 15.0671 24.0189 15.0671 23.7057V22.6273H16.1455C16.4585 22.6273 16.7125 22.3735 16.7125 22.0602C16.7125 21.7471 16.4585 21.4931 16.1455 21.4931H15.0671V20.4147C15.0671 20.1017 14.8133 19.8477 14.5 19.8477C14.1869 19.8477 13.9329 20.1017 13.9329 20.4147ZM16.8771 19.6831C16.2689 19.0748 15.4284 18.6985 14.5 18.6985C13.5716 18.6985 12.7311 19.0748 12.1229 19.6831C10.8175 20.9887 10.8175 23.1319 12.1229 24.4373C12.7311 25.0456 13.5716 25.4219 14.5 25.4219C15.4284 25.4219 16.2687 25.0456 16.8771 24.4373C18.1825 23.1319 18.1825 20.9887 16.8771 19.6831Z" fill="black"/>
</svg>
