<svg width="28" height="28" viewBox="0 0 28 28" fill="none" xmlns="http://www.w3.org/2000/svg">
<path d="M26.6582 12.6927C26.4313 12.4017 26.0116 12.35 25.7205 12.5768C25.4296 12.8037 25.3777 13.2235 25.6046 13.5145C25.8276 13.8005 25.8276 14.1999 25.6046 14.4859C23.9703 16.5813 21.8557 18.1558 19.4752 19.1077C20.7264 17.768 21.4925 15.9716 21.4925 14.0002C21.4925 12.0365 20.7328 10.2465 19.4923 8.9097C20.8678 9.46281 22.1609 10.223 23.3185 11.1721C23.4622 11.2899 23.6054 11.412 23.7445 11.5351C24.0208 11.7798 24.443 11.7541 24.6876 11.4778C24.9322 11.2016 24.9065 10.7793 24.6303 10.5347C24.4787 10.4004 24.3223 10.2672 24.1657 10.1389C21.3099 7.79741 17.6996 6.50793 14 6.50793C9.02113 6.50793 4.40742 8.76221 1.34191 12.6928C0.741498 13.4626 0.741498 14.5379 1.34191 15.3078C4.40742 19.2384 9.02113 21.4926 14 21.4926C18.9788 21.4926 23.5926 19.2384 26.6582 15.3078C27.2586 14.5378 27.2586 13.4625 26.6582 12.6927ZM2.39558 14.4859C2.17256 14.1999 2.17256 13.8005 2.39558 13.5145C4.02947 11.4195 6.14358 9.84524 8.52369 8.89318C7.27381 10.2322 6.50758 12.0279 6.50758 14.0002C6.50758 15.9717 7.27376 17.7681 8.52364 19.1072C6.14358 18.1552 4.02942 16.5809 2.39558 14.4859ZM14.0082 20.1562C14.0055 20.1562 14.0028 20.1562 14.0001 20.1562C13.9974 20.1562 13.9947 20.1562 13.992 20.1562C10.601 20.1518 7.84382 17.3922 7.84382 14.0002C7.84382 10.6082 10.6009 7.84854 13.992 7.84417C13.9947 7.84417 13.9974 7.84411 14.0001 7.84411C14.0022 7.84411 14.0043 7.84417 14.0063 7.84417C17.3982 7.8475 20.1563 10.6075 20.1563 14.0002C20.1563 17.3922 17.3992 20.1518 14.0082 20.1562Z" fill="black"/>
<path d="M14.0002 11.1649C12.4368 11.1649 11.1652 12.4366 11.1652 13.9999C11.1652 15.5633 12.4368 16.8349 14.0002 16.8349C15.5635 16.8349 16.8352 15.5633 16.8352 13.9999C16.8352 12.4366 15.5635 11.1649 14.0002 11.1649ZM14.0002 15.4987C13.174 15.4987 12.5014 14.8261 12.5014 13.9999C12.5014 13.1737 13.174 12.5012 14.0002 12.5012C14.8264 12.5012 15.499 13.1737 15.499 13.9999C15.499 14.8261 14.8264 15.4987 14.0002 15.4987Z" fill="black"/>
<path d="M14.0004 0C13.6313 0 13.3322 0.299086 13.3322 0.668117V3.17352C13.3322 3.54255 13.6313 3.84163 14.0004 3.84163C14.3694 3.84163 14.6685 3.54255 14.6685 3.17352V0.668117C14.6685 0.299086 14.3693 0 14.0004 0Z" fill="black"/>
<path d="M14.0004 24.1582C13.6313 24.1582 13.3322 24.4573 13.3322 24.8263V27.3317C13.3322 27.7007 13.6313 27.9998 14.0004 27.9998C14.3694 27.9998 14.6685 27.7007 14.6685 27.3317V24.8263C14.6685 24.4573 14.3693 24.1582 14.0004 24.1582Z" fill="black"/>
<path d="M23.8999 4.10043C23.639 3.83957 23.216 3.83957 22.9549 4.10043L21.7083 5.34703C21.4474 5.60795 21.4474 6.03095 21.7083 6.29198C21.8388 6.42241 22.0097 6.48765 22.1808 6.48765C22.3517 6.48765 22.5227 6.42241 22.6532 6.29198L23.8999 5.04537C24.1608 4.78446 24.1608 4.36145 23.8999 4.10043Z" fill="black"/>
<path d="M6.29229 21.7081C6.03143 21.4473 5.60843 21.4472 5.34746 21.7081L4.10075 22.9547C3.83983 23.2156 3.83983 23.6386 4.10075 23.8996C4.23123 24.0301 4.40224 24.0953 4.57319 24.0953C4.74414 24.0953 4.9151 24.0301 5.04564 23.8996L6.29235 22.653C6.55321 22.3921 6.55321 21.9691 6.29229 21.7081Z" fill="black"/>
<path d="M6.29187 5.34709L5.04516 4.10043C4.78425 3.83957 4.36124 3.83957 4.10033 4.10043C3.83941 4.36145 3.83947 4.78441 4.10033 5.04537L5.34704 6.29198C5.47747 6.42241 5.64853 6.48765 5.81948 6.48765C5.99044 6.48765 6.1615 6.42241 6.29193 6.29198C6.55279 6.03095 6.55273 5.608 6.29187 5.34709Z" fill="black"/>
<path d="M23.8994 22.9546L22.6528 21.708C22.3918 21.4471 21.9689 21.4471 21.7078 21.708C21.4469 21.969 21.4469 22.3919 21.7078 22.6529L22.9545 23.8995C23.085 24.0299 23.256 24.0952 23.427 24.0952C23.5979 24.0952 23.7689 24.0299 23.8994 23.8995C24.1603 23.6385 24.1603 23.2155 23.8994 22.9546Z" fill="black"/>
</svg>
