<svg width="22" height="22" viewBox="0 0 22 22" fill="none" xmlns="http://www.w3.org/2000/svg">
<g clip-path="url(#clip0)">
<path d="M11.2993 0C5.26963 0 2.06299 3.86392 2.06299 8.07711C2.06299 10.0311 3.15479 12.4677 4.90249 13.2405C5.16788 13.3601 5.31226 13.3092 5.37139 13.0631C5.42364 12.8761 5.65327 11.9754 5.76465 11.5505C5.79903 11.4144 5.78116 11.2961 5.67115 11.1683C5.09087 10.4972 4.63023 9.27479 4.63023 8.12799C4.63023 5.18948 6.96646 2.33623 10.9418 2.33623C14.3794 2.33623 16.7844 4.56933 16.7844 7.7636C16.7844 11.3731 14.8744 13.8702 12.3925 13.8702C11.0188 13.8702 9.99572 12.7922 10.3202 11.4584C10.7121 9.87019 11.4808 8.16237 11.4808 7.01694C11.4808 5.98977 10.9005 5.13998 9.71521 5.13998C8.31677 5.13998 7.18234 6.52467 7.18234 8.38375C7.18234 9.56493 7.60036 10.3625 7.60036 10.3625C7.60036 10.3625 6.21705 15.9507 5.95991 16.9944C5.52539 18.7613 6.01904 21.6228 6.06167 21.869C6.08779 22.0051 6.24043 22.0477 6.32568 21.9364C6.46181 21.7576 8.13389 19.3719 8.60278 17.6475C8.77329 17.0191 9.4732 14.4712 9.4732 14.4712C9.93384 15.3031 11.2635 16.0002 12.6798 16.0002C16.893 16.0002 19.9374 12.2972 19.9374 7.70172C19.9223 3.29602 16.1519 0 11.2993 0Z" fill="#D58481"/>
</g>
<defs>
<clipPath id="clip0">
<rect width="22" height="22" fill="white"/>
</clipPath>
</defs>
</svg>
