<svg width="27" height="27" viewBox="0 0 27 27" fill="none" xmlns="http://www.w3.org/2000/svg">
<path d="M25.9476 5.63029C24.973 4.47173 23.1736 3.99915 19.7371 3.99915H7.26265C3.74751 3.99915 1.91761 4.50222 0.946655 5.73568C0 6.93831 0 8.7103 0 11.1628V15.8372C0 20.5884 1.1232 23.0007 7.26265 23.0007H19.7372C22.7173 23.0007 24.3686 22.5837 25.437 21.5613C26.5326 20.5128 27 18.8009 27 15.8372V11.1628C27 8.57643 26.9268 6.79399 25.9476 5.63029ZM17.3341 14.1453L11.6695 17.1058C11.5428 17.172 11.4044 17.2048 11.2661 17.2048C11.1095 17.2048 10.9532 17.1627 10.8148 17.0789C10.5542 16.921 10.3951 16.6385 10.3951 16.3339V10.4319C10.3951 10.1277 10.5538 9.84552 10.8138 9.68752C11.074 9.52953 11.3976 9.51873 11.6675 9.65896L17.3321 12.6004C17.6203 12.75 17.8013 13.0475 17.8017 13.3722C17.8021 13.697 17.6219 13.995 17.3341 14.1453Z" fill="#D58481"/>
</svg>
