<svg width="24" height="24" viewBox="0 0 24 24" fill="none" xmlns="http://www.w3.org/2000/svg">
<path d="M23.8214 0.961494C23.6138 0.728996 23.2861 0.666653 23.0147 0.785246L0.42117 10.6758C0.17086 10.7855 0.00632995 11.0306 0.000236252 11.3044C-0.00585745 11.5777 0.147423 11.8298 0.393046 11.9508L5.78785 14.6039L7.13221 22.6691C7.1758 22.9752 7.41627 23.2213 7.72939 23.2659C7.95439 23.2982 8.17798 23.219 8.33267 23.0596L12.5917 18.8006L18.6695 23.1421C18.8645 23.2809 19.1157 23.3113 19.337 23.2237C19.5587 23.136 19.7209 22.9415 19.7677 22.7076L23.9864 1.56711C24.0282 1.35758 23.9743 1.13306 23.8214 0.961494ZM6.34472 13.3106L2.37209 11.3569L18.0667 4.48647L6.34472 13.3106ZM8.54501 15.4008L7.89111 18.6703L7.18565 14.4375L15.8092 7.94582L8.73673 15.0422C8.63735 15.1415 8.57126 15.2709 8.54501 15.4008ZM8.97297 20.4304L9.71078 16.7428L11.4315 17.9718L8.97297 20.4304ZM18.6015 21.3651L10.3173 15.4481L22.1518 3.57429L18.6015 21.3651Z" fill="#D58481"/>
</svg>
