<svg xmlns="http://www.w3.org/2000/svg" viewBox="0 0 14.46 32.08"><defs><style>.cls-1{fill:#fff;}.cls-2{fill:#262424;}</style></defs><title>Ресурс 1</title><g id="Слой_2" data-name="Слой 2"><g id="Слой_1-2" data-name="Слой 1"><path class="cls-1" d="M10.76,12.32c-.66-2.4-1.89-3.63-1.93-4.83S10.11,4.4,10,3.58A1.55,1.55,0,0,0,8.63,2c-.85,0-.9.84-1.4.84S6.69,2,5.83,2A1.55,1.55,0,0,0,4.41,3.58c-.06.82,1.25,2.72,1.22,3.92S4.36,9.92,3.7,12.32s.57,7,.63,8.78.44,9.81.44,9.81a10,10,0,0,0,1.17.45,2.89,2.89,0,0,0,1.28.2,2.89,2.89,0,0,0,1.28-.2,10,10,0,0,0,1.17-.45s.38-8,.44-9.81S11.42,14.72,10.76,12.32Z"/><path class="cls-2" d="M7.09,32.08a4.72,4.72,0,0,1-1.28-.23,10.27,10.27,0,0,1-1.24-.48.5.5,0,0,1-.29-.43s-.38-8-.44-9.82a22.65,22.65,0,0,0-.31-2.34c-.35-2.16-.79-4.85-.3-6.59a14.45,14.45,0,0,1,1.23-3,4.62,4.62,0,0,0,.67-1.76,6,6,0,0,0-.64-2,4.67,4.67,0,0,1-.57-1.91A2,2,0,0,1,5.83,1.48a1.57,1.57,0,0,1,1.28.68l.14.16s0-.1.09-.16a1.57,1.57,0,0,1,1.28-.68,2,2,0,0,1,1.92,2.06A4.67,4.67,0,0,1,10,5.44a6,6,0,0,0-.64,2A4.62,4.62,0,0,0,10,9.23a14.46,14.46,0,0,1,1.23,3h0c.48,1.74,0,4.43-.3,6.59a22.6,22.6,0,0,0-.31,2.34c-.06,1.8-.44,9.82-.44,9.82a.5.5,0,0,1-.29.43,10.31,10.31,0,0,1-1.25.48,4,4,0,0,1-1.42.23Zm.14-1,.13,0a4,4,0,0,0,1-.2,8.06,8.06,0,0,0,.83-.31c.07-1.49.37-7.91.43-9.5a23,23,0,0,1,.32-2.46c.33-2.06.75-4.64.33-6.17A13.4,13.4,0,0,0,9.12,9.7a5.28,5.28,0,0,1-.79-2.19A6.4,6.4,0,0,1,9.06,5a5,5,0,0,0,.49-1.43c0-.55-.35-1.13-.92-1.13-.24,0-.33.1-.52.32a1.14,1.14,0,0,1-.88.52,1.14,1.14,0,0,1-.88-.52c-.19-.22-.28-.32-.52-.32-.57,0-.88.59-.92,1.13A5,5,0,0,0,5.4,5a6.4,6.4,0,0,1,.73,2.46A5.28,5.28,0,0,1,5.34,9.7a13.4,13.4,0,0,0-1.16,2.76c-.42,1.53,0,4.1.33,6.17a23,23,0,0,1,.32,2.46c.06,1.59.36,8,.43,9.5a8,8,0,0,0,.83.31,3.23,3.23,0,0,0,1,.19Z"/><polygon class="cls-1" points="9.96 2.66 14.09 11 13.06 11.52 12.91 11.52 9.57 4.85 10.16 3.52 9.96 2.66"/><path class="cls-2" d="M13.06,11.9h-.16a.37.37,0,0,1-.34-.21L9.24,5a.37.37,0,0,1,0-.32l.54-1.22L9.6,2.75a.37.37,0,0,1,.7-.25l4.12,8.34a.37.37,0,0,1-.17.5l-1,.52A.38.38,0,0,1,13.06,11.9ZM10,4.84l3.12,6.24.48-.25-3.3-6.67Z"/><path class="cls-1" d="M7.23,3.3l2.52-.61A2.65,2.65,0,0,1,8.46.5H6A2.65,2.65,0,0,1,4.71,2.69l2.44.61v0h.08Z"/><path class="cls-2" d="M7.23,3.82H7.12L7,3.77l-2.37-.6a.5.5,0,0,1-.09-.94,2.2,2.2,0,0,0,1-1.79A.5.5,0,0,1,6,0H8.46A.5.5,0,0,1,9,.44a2.19,2.19,0,0,0,1,1.79.5.5,0,0,1,.28.5.5.5,0,0,1-.38.43l-2.39.58A.5.5,0,0,1,7.23,3.82ZM5.75,2.43l1.45.36,1.5-.36A3.45,3.45,0,0,1,8,1H6.39A3.49,3.49,0,0,1,5.75,2.43Z"/><polygon class="cls-1" points="4.5 2.66 0.38 11 1.4 11.52 1.56 11.52 4.89 4.85 4.3 3.52 4.5 2.66"/><path class="cls-2" d="M1.56,11.9H1.4a.38.38,0,0,1-.17,0l-1-.52a.37.37,0,0,1-.17-.5L4.16,2.5a.37.37,0,0,1,.46-.19.38.38,0,0,1,.24.44l-.17.73L5.23,4.7a.37.37,0,0,1,0,.32L1.89,11.69A.37.37,0,0,1,1.56,11.9ZM.88,10.83l.48.25L4.48,4.84l-.3-.68Z"/></g></g></svg>