<svg xmlns="http://www.w3.org/2000/svg" viewBox="0 0 16.89 18.26"><defs><style>.cls-1{fill:#fff;}.cls-2{fill:#262424;}</style></defs><title>Ресурс 4</title><g id="Слой_2" data-name="Слой 2"><g id="Слой_1-2" data-name="Слой 1"><path class="cls-1" d="M15.87,13.8c-2.65-6.93-6-9-6-9A27.87,27.87,0,0,0,11,2.18C11.58.41,9.72.31,9.18.67a2.79,2.79,0,0,0-.7.7,2.47,2.47,0,0,0-.7-.7C7.25.33,5.39.41,6,2.18A27.89,27.89,0,0,0,7.13,4.8S4.75,6.43,1.06,14.17a6.47,6.47,0,0,0-.7,1.75c-.1.65,3.53,1.91,8.13,1.84,4.4-.07,8.11-1.82,8-2.22C16.23,14.94,16.08,14.34,15.87,13.8Z"/><path class="cls-2" d="M10.5,4.6a23.15,23.15,0,0,0,1-2.26,1.62,1.62,0,0,0-.44-2A2,2,0,0,0,8.9.26,3.1,3.1,0,0,0,8.49.6,2.75,2.75,0,0,0,8.06.25,2.05,2.05,0,0,0,5.92.38a1.62,1.62,0,0,0-.42,2,23.11,23.11,0,0,0,1,2.25c-.83.9-2.46,2.49-5.42,8.68A22.58,22.58,0,0,0,0,16c.31.11.66,0,1,.12A13.9,13.9,0,0,1,1.78,14c3.53-7.4,5.5-8.75,5.53-8.76a.5.5,0,0,0,.26-.69A27.54,27.54,0,0,1,6.45,2c-.14-.42-.11-.71.08-.85a1.11,1.11,0,0,1,1-.07,2,2,0,0,1,.54.54.5.5,0,0,0,.42.24.54.54,0,0,0,.43-.23,2.32,2.32,0,0,1,.56-.56,1.08,1.08,0,0,1,1,.07c.2.15.23.44.09.87A27.51,27.51,0,0,1,9.4,4.57a.5.5,0,0,0,.23.67s3.1,2.09,5.64,8.73A24.91,24.91,0,0,1,16,16.42c.33-.14.56-.32.87-.42-.23-.86-.6-1.87-.88-2.61C13.79,7.57,11.5,5.55,10.5,4.6Z"/><path class="cls-1" d="M.36,15.65a19.05,19.05,0,0,0,4.07,1.57,30.32,30.32,0,0,0,4.06.54"/><path class="cls-2" d="M8.46,18.26a30.37,30.37,0,0,1-4.14-.56,19.35,19.35,0,0,1-4.2-1.61l.47-.88a18.66,18.66,0,0,0,3.94,1.52,30.08,30.08,0,0,0,4,.53Z"/><path class="cls-1" d="M16.52,15.65a18.49,18.49,0,0,1-4,1.57,30.32,30.32,0,0,1-4.06.54"/><path class="cls-2" d="M8.45,18.26l-.06-1a30.08,30.08,0,0,0,4-.53,18,18,0,0,0,3.91-1.52l.48.88a18.76,18.76,0,0,1-4.17,1.62A30.37,30.37,0,0,1,8.45,18.26Z"/></g></g></svg>