<svg width="19" height="68" viewBox="0 0 19 68" fill="none" xmlns="http://www.w3.org/2000/svg">
<g clip-path="url(#clip0)">
<path d="M17.6429 24C16.0596 18.6667 13.3453 16 13.1191 13.3333C13.1191 10.6667 16.0596 6.44445 15.8334 4.66667C15.8334 2.88889 14.7024 1.11111 12.6667 1.11111C10.631 1.11111 10.631 2.88889 9.50007 2.88889C8.36912 2.88889 8.36912 1.11111 6.3334 1.11111C4.52388 1.11111 3.39292 2.88889 3.16673 4.66667C2.94054 6.44445 6.10721 10.6667 5.88102 13.3333C5.65483 16 2.94054 18.6667 1.5834 24C6.74725e-05 29.3333 2.94054 39.5556 2.94054 43.5556C2.94054 47.5556 3.84531 65.3333 3.84531 65.3333C3.84531 65.3333 5.20245 66 6.55959 66.4445C8.8215 67.1111 9.50007 66.8889 9.50007 66.8889C9.50007 66.8889 10.1786 67.1111 12.4405 66.4445C13.5715 66 15.1548 65.3333 15.1548 65.3333C15.1548 65.3333 16.0596 47.5556 16.0596 43.5556C16.0596 39.5556 19.0001 29.3333 17.6429 24Z" fill="white"/>
<path d="M9.18225 67.9697C8.72694 67.9697 7.8163 67.9697 6.22268 67.5387C4.85673 67.1077 3.49077 66.4613 3.49077 66.4613C3.03546 66.2458 2.8078 66.0303 2.8078 65.5993C2.8078 65.5993 1.89716 48.3603 1.89716 44.4815C1.89716 43.404 1.44184 41.4646 1.21418 39.5252C0.303546 34.7845 -0.607091 29.1818 0.531205 25.303C1.21418 22.7172 2.35248 20.5623 3.26312 18.8384C3.94609 17.1145 4.62907 16.037 4.62907 14.9596C4.62907 13.8822 3.94609 12.1582 3.26312 10.6498C2.58014 8.92593 1.89716 7.633 1.89716 6.55556C2.12482 3.75421 3.94609 2.0303 6.22268 2.0303C7.8163 2.0303 8.72694 2.89226 9.18225 3.53872C9.18225 3.75421 9.40991 3.75421 9.40991 3.9697C9.40991 3.9697 9.40991 3.75421 9.63757 3.53872C10.0929 2.89226 11.0035 2.0303 12.5971 2.0303C14.8737 2.0303 16.695 3.75421 16.9227 6.55556C17.1503 7.633 16.4674 8.92593 15.7844 10.6498C15.1014 12.1582 14.1908 13.8822 14.1908 14.9596C14.1908 16.037 14.8737 17.1145 15.7844 18.8384C16.695 20.5623 17.8333 22.5017 18.5163 25.303C19.6546 28.9663 18.5163 34.7845 17.8333 39.5252C17.378 41.6801 17.1503 43.404 17.1503 44.4815C16.9227 48.3603 16.2397 65.5993 16.2397 65.5993C16.2397 66.0303 16.012 66.4613 15.5567 66.4613C15.5567 66.4613 13.9631 67.1077 12.8248 67.5387C11.0035 67.9697 10.0929 67.9697 9.63757 67.9697C9.40991 67.9697 9.18225 67.9697 9.18225 67.9697ZM9.40991 65.8148H9.63757C9.63757 65.8148 10.3206 65.8148 11.9142 65.3838C12.5971 65.1683 13.2801 64.9529 13.7354 64.7374C13.9631 61.505 14.6461 47.7138 14.6461 44.266C14.6461 42.9731 15.1014 41.0337 15.3291 38.8788C16.012 34.3535 17.1503 28.9663 16.012 25.5185C15.7844 23.1481 14.6461 21.4242 13.7354 19.7003C12.8248 17.9764 11.9142 16.468 11.9142 14.9596C11.9142 13.2357 12.8248 11.5118 13.5078 9.57239C14.1908 8.49495 14.8737 7.20202 14.6461 6.55556C14.6461 5.47811 13.9631 4.18519 12.5971 4.18519C12.1418 4.18519 11.9142 4.40067 11.4588 4.83165C11.0035 5.26263 10.5482 5.90909 9.40991 5.90909C8.27162 5.90909 7.8163 5.26263 7.36098 4.83165C7.13332 4.40067 6.90566 4.18519 6.22268 4.18519C5.08439 4.18519 4.17375 5.47811 4.17375 6.55556C4.17375 7.20202 4.85673 8.49495 5.31205 9.57239C6.22269 11.5118 6.90566 13.4512 6.90566 14.9596C6.90566 16.468 5.99503 17.9764 5.08439 19.7003C4.17375 21.4242 3.26312 23.1481 2.58014 25.734C1.6695 28.9663 2.58014 34.569 3.26312 39.0943C3.71843 41.2492 3.94609 43.1885 3.94609 44.4815C4.17375 47.9293 4.85673 61.7205 4.85673 64.9529C5.31205 65.1683 5.99503 65.3838 6.678 65.5993C8.49928 65.8148 9.18225 65.8148 9.40991 65.8148Z" fill="black"/>
</g>
<defs>
<clipPath id="clip0">
<rect width="19" height="68" fill="white"/>
</clipPath>
</defs>
</svg>
