<svg id="Слой_1" data-name="Слой 1" xmlns="http://www.w3.org/2000/svg" viewBox="0 0 48.19 48.19"><defs><style>.cls-1{fill:#fff;}.cls-2{fill:#262424;}</style></defs><title>Монтажная область 3</title><path class="cls-1" d="M27.62,19.64C27,17.24,25.73,16,25.7,14.8s1.28-3.09,1.22-3.92a1.55,1.55,0,0,0-1.42-1.59c-.85,0-.9.84-1.4.84s-.54-.84-1.4-.84a1.55,1.55,0,0,0-1.42,1.59c-.06.82,1.25,2.72,1.22,3.92s-1.26,2.43-1.93,4.83.57,7,.63,8.78.44,9.81.44,9.81a10,10,0,0,0,1.17.45,2.89,2.89,0,0,0,1.28.2,2.89,2.89,0,0,0,1.28-.2,10,10,0,0,0,1.17-.45s.38-8,.44-9.81S28.29,22,27.62,19.64Z"/><path class="cls-2" d="M24,39.39a4.72,4.72,0,0,1-1.28-.23,10.27,10.27,0,0,1-1.24-.48.5.5,0,0,1-.29-.43s-.38-8-.44-9.82a22.65,22.65,0,0,0-.31-2.34c-.35-2.16-.79-4.85-.3-6.59a14.45,14.45,0,0,1,1.23-3A4.62,4.62,0,0,0,22,14.79a6,6,0,0,0-.64-2,4.67,4.67,0,0,1-.57-1.91A2,2,0,0,1,22.7,8.79,1.57,1.57,0,0,1,24,9.48l.14.16s0-.1.09-.16a1.57,1.57,0,0,1,1.28-.68,2,2,0,0,1,1.92,2.06,4.67,4.67,0,0,1-.57,1.9,6,6,0,0,0-.64,2,4.62,4.62,0,0,0,.67,1.75,14.46,14.46,0,0,1,1.23,3h0c.48,1.74,0,4.43-.3,6.59a22.6,22.6,0,0,0-.31,2.34c-.06,1.8-.44,9.82-.44,9.82a.5.5,0,0,1-.29.43,10.31,10.31,0,0,1-1.25.48,4,4,0,0,1-1.42.23Zm.14-1,.13,0a4,4,0,0,0,1-.2,8.06,8.06,0,0,0,.83-.31c.07-1.49.37-7.91.43-9.5a23,23,0,0,1,.32-2.46c.33-2.06.75-4.64.33-6.17A13.4,13.4,0,0,0,26,17a5.28,5.28,0,0,1-.79-2.19,6.4,6.4,0,0,1,.73-2.46,5,5,0,0,0,.49-1.43c0-.55-.35-1.13-.92-1.13-.24,0-.33.1-.52.32a1,1,0,0,1-1.76,0c-.19-.22-.28-.32-.52-.32-.57,0-.88.59-.92,1.13a5,5,0,0,0,.49,1.43A6.4,6.4,0,0,1,23,14.82,5.28,5.28,0,0,1,22.21,17,13.4,13.4,0,0,0,21,19.77c-.42,1.53,0,4.1.33,6.17a23,23,0,0,1,.32,2.46c.06,1.59.36,8,.43,9.5a8,8,0,0,0,.83.31,3.23,3.23,0,0,0,1,.19Z"/></svg>