<svg width="43" height="67" viewBox="0 0 43 67" fill="none" xmlns="http://www.w3.org/2000/svg">
<g clip-path="url(#clip0)">
<path d="M34.311 33.5C32.9742 28.6192 26.2903 8.87418 26.2903 8.87418C26.2903 8.87418 28.5183 4.88081 28.5183 3.99339C28.5183 3.10597 27.6271 1.10928 25.3991 1.10928C23.1711 1.10928 21.6115 3.77153 21.6115 3.77153C21.6115 3.77153 20.0519 1.10928 17.824 1.10928C15.596 1.10928 14.7048 3.10597 14.7048 3.99339C14.7048 4.88081 16.9328 8.87418 16.9328 8.87418C16.9328 8.87418 10.2488 28.6192 8.91204 33.5C7.35246 38.3808 1.33691 60.3444 1.33691 60.3444L2.8965 61.2318V63.2285C2.8965 63.2285 6.90686 64.3378 10.9172 65.0033C17.1556 66.1126 21.6115 65.8907 21.6115 65.8907C21.6115 65.8907 26.0675 66.1126 32.3058 65.0033C36.3162 64.3378 40.3266 63.2285 40.3266 63.2285V61.2318L41.8861 60.3444C41.8861 60.3444 35.8706 38.3808 34.311 33.5Z" fill="white"/>
<path d="M43 60.1225C43 59.9007 36.7617 38.1589 35.4249 33.2781C34.0881 28.8411 28.5181 11.9801 27.4042 9.09603C28.2953 7.32119 29.4093 4.88079 29.4093 4.21523C29.4093 2.88411 28.2953 0.221854 25.1762 0.221854C23.6166 0 22.2798 0.887417 21.6114 1.77483C20.7202 0.887417 19.3834 0 17.8238 0C14.7047 0 13.5907 2.66225 13.5907 3.99338C13.5907 4.88079 14.7047 7.09934 15.5959 8.87417C14.7047 11.9801 8.91192 28.6192 7.57513 33.2781C6.23835 38.1589 2.36928e-06 59.9007 2.36928e-06 60.1225C-0.222796 60.5662 2.36183e-06 61.0099 0.445598 61.4536L1.55959 62.1192V63.4503C1.55959 63.894 2.00518 64.3377 2.45078 64.5596C2.45078 64.5596 6.68394 65.6689 10.6943 66.3344C14.9275 67 18.2694 67.2218 20.0518 67.2218C20.943 67.2218 21.3886 67.2218 21.3886 67.2218C21.6114 67.2218 26.0674 67.4437 32.3057 66.3344C36.3161 65.6689 40.5492 64.5596 40.5492 64.5596C40.9948 64.3377 41.4404 63.894 41.4404 63.4503V62.1192L42.5544 61.4536C43 61.0099 43.2228 60.5662 43 60.1225ZM17.8238 2.21854C19.1606 2.21854 20.2746 3.77152 20.4974 4.21523C20.943 4.88079 22.057 4.88079 22.5026 4.21523C22.7254 3.77152 24.0622 2.21854 25.1762 2.21854C26.7358 2.21854 27.1814 3.77152 27.1814 3.99338C27.1814 4.43709 26.0674 6.43377 25.1762 8.20861C24.285 8.43046 22.2798 8.65232 21.3886 8.65232C20.2746 8.65232 18.715 8.43046 17.8238 8.20861C16.9326 6.65563 15.8187 4.43709 15.8187 3.99338C15.8187 3.77152 16.2643 2.21854 17.8238 2.21854ZM39.8808 60.3444C39.4352 60.5662 39.4352 61.0099 39.4352 61.2318V62.3411C38.0985 62.7848 34.9793 63.4503 32.3057 63.894C26.2902 65.0033 21.8342 64.7814 21.6114 64.7814C21.6114 64.7814 17.1554 65.0033 11.1399 63.894C8.24353 63.4503 5.34715 62.5629 4.01037 62.3411V61.2318C4.01037 60.7881 3.78757 60.5662 3.56477 60.3444L2.45078 59.9007C3.56477 55.9073 8.46632 38.1589 9.80311 33.9437C11.1399 29.5066 16.487 13.5331 17.601 9.98344C18.4922 10.2053 20.0518 10.4272 21.1658 10.4272C22.2798 10.4272 24.0622 10.2053 25.1762 9.98344C26.2902 13.3113 31.8601 29.5066 32.9741 33.9437C34.3109 38.3808 39.2124 55.9073 40.3264 59.9007L39.8808 60.3444Z" fill="black"/>
</g>
<defs>
<clipPath id="clip0">
<rect width="43" height="67" fill="white"/>
</clipPath>
</defs>
</svg>
