<svg width="29" height="71" viewBox="0 0 29 71" fill="none" xmlns="http://www.w3.org/2000/svg">
<path d="M24.3865 58.6522C22.4092 54.4628 19.3335 50.2734 19.3335 50.2734C19.3335 50.2734 19.1138 40.792 19.9926 37.0436C20.8714 33.0746 22.8486 26.2392 21.0911 21.3883C19.3335 16.5373 17.5759 14.1119 17.5759 11.6864C17.5759 9.26095 21.5305 4.41001 20.432 2.20505C19.5532 0.220574 16.9168 1.54356 15.8183 1.98455C14.9395 2.42554 14.5001 2.42554 14.5001 2.42554C14.5001 2.42554 14.0608 2.42554 13.182 1.98455C12.0835 1.54356 9.66681 0.220574 8.56833 2.20505C7.46985 4.41001 11.4244 9.04045 11.4244 11.6864C11.4244 14.3324 9.66681 16.5373 7.90924 21.3883C5.93197 26.2392 8.12894 33.0746 9.00772 37.0436C9.88651 41.0125 9.66681 50.2734 9.66681 50.2734C9.66681 50.2734 6.59106 54.2423 4.61378 58.6522C2.63651 63.2827 1.09863 68.7951 1.09863 68.7951C1.09863 68.7951 4.83348 70.1181 5.71227 69.2361C6.59106 68.3541 7.90924 69.4566 7.90924 69.4566C7.90924 69.4566 10.985 70.5591 12.3032 70.1181C13.4017 69.6771 15.3789 69.6771 16.6971 70.1181C17.7956 70.5591 21.0911 69.6771 21.0911 69.6771C21.0911 69.6771 22.4092 68.1336 23.288 69.2361C24.1668 70.3386 27.9017 68.7951 27.9017 68.7951C27.9017 68.7951 26.5835 63.0622 24.3865 58.6522Z" fill="white"/>
<path d="M1.09863 68.7951C1.09863 68.7951 10.3259 69.8976 14.5001 69.8976C18.6744 69.8976 27.9017 68.7951 27.9017 68.7951" fill="white"/>
<path d="M10.5457 54.4627C10.5457 54.4627 9.44718 56.6676 9.22748 57.7701C9.00778 58.8726 8.78809 61.7391 8.78809 61.7391" fill="white"/>
<path d="M18.6743 54.6831C18.6743 54.6831 19.7728 56.8881 19.9925 57.9906C20.2122 59.0931 20.4319 61.9595 20.4319 61.9595" fill="white"/>
<path d="M27.8847 65.6987C27.8847 65.4974 26.4651 60.4646 24.6399 56.2371C23.2203 52.8149 20.7867 49.5939 20.1783 48.7887C20.1783 47.1782 19.9755 40.3337 20.7867 37.3141L20.9895 36.5089C22.0035 32.684 23.4231 26.846 21.8007 22.4172C21.1923 20.8068 20.5839 19.5989 19.9755 18.391C19.1643 16.378 18.3531 14.9688 18.3531 13.7609C18.3531 12.9557 18.9615 11.5465 19.5699 10.3387C20.5839 8.12429 21.5979 6.1112 20.7867 4.70204C19.5699 2.08502 16.5279 3.29288 15.7167 3.8968H15.3111C15.1083 4.09811 14.7027 4.09811 14.4999 4.29942C14.2971 4.29942 14.0943 4.09811 13.6887 3.8968H13.4859C12.4719 3.49418 9.42996 2.08502 8.21316 4.70204C7.40197 6.1112 8.41596 8.12429 9.42996 10.3387C10.0384 11.5465 10.6468 12.9557 10.6468 13.7609C10.6468 14.9688 10.0384 16.5793 9.02436 18.391C8.61876 19.5989 8.01037 20.8068 7.40197 22.2159C5.77958 26.6447 7.19917 32.4827 8.21316 36.3076L8.41596 37.1128C9.22716 40.1324 9.02436 47.1782 9.02436 48.5874C8.41596 49.5939 5.98238 52.6136 4.56278 56.0358C2.5348 60.2633 1.1152 65.296 1.1152 65.6987C0.912405 66.1013 1.1152 66.5039 1.5208 66.9065C1.7236 66.9065 1.7236 66.9065 1.9264 66.9065C2.332 66.9065 10.444 67.9131 14.4999 67.9131C18.5559 67.9131 26.6679 66.9065 27.0735 66.9065C27.2763 66.9065 27.2763 66.9065 27.4791 66.7052C27.8847 66.5039 28.0875 66.1013 27.8847 65.6987ZM6.38797 57.0424C8.01037 53.4188 10.8496 49.7953 10.8496 49.5939C11.0523 49.3926 11.0523 49.1913 11.0523 48.99C11.0523 48.5874 11.2551 40.1324 10.444 36.5089L10.2412 35.7036C9.22716 32.2814 7.80757 26.846 9.22716 23.0212C9.83556 21.612 10.444 20.4041 10.8496 19.1963C11.8635 16.9819 12.6747 15.3714 12.6747 13.5596C12.6747 12.3518 12.0663 10.9426 11.2551 9.33214C10.6468 8.12429 9.63276 6.1112 10.0384 5.50727C10.0384 5.30597 10.2412 5.10466 10.6468 5.10466C11.0523 5.10466 11.6607 5.30596 12.4719 5.70858L12.6747 5.90989C13.4859 6.31251 13.8915 6.51382 13.8915 6.51382C14.0943 6.71513 14.4999 6.71513 14.9055 6.51382C14.9055 6.51382 15.3111 6.31251 16.1223 5.90989L16.3251 5.70858C18.1503 4.90335 18.7587 5.10466 18.9615 5.70858C19.3671 6.1112 18.5559 8.12429 17.9475 9.53345C17.1363 10.9426 16.3251 12.5531 16.3251 13.7609C16.3251 15.5727 17.1363 17.1832 18.1503 19.3976C18.5559 20.4041 19.1643 21.612 19.7727 23.2225C21.1923 27.0473 19.7727 32.4827 18.9615 36.1062L18.7587 36.9115C17.7447 40.535 18.1503 48.99 18.1503 49.3926C18.1503 49.5939 18.1503 49.7952 18.3531 49.9966C18.3531 49.9966 21.1923 53.6201 22.8147 57.445C23.6259 59.2568 24.4371 61.4712 25.0455 63.0816C24.4371 62.4777 23.8287 62.0751 23.6259 61.6725C22.6119 60.8672 20.5839 59.0555 20.5839 59.0555C20.5839 59.0555 20.3811 59.0555 20.3811 58.8542C20.3811 58.0489 20.1783 56.8411 19.9755 56.2371C19.7727 55.2306 18.7587 53.2175 18.7587 53.0162C18.5559 52.8149 18.3531 52.6136 18.1503 52.8149C17.9475 53.0162 17.7447 53.2175 17.9475 53.4188C18.1503 54.0227 18.9615 55.6332 19.1643 56.4384C19.1643 56.8411 19.3671 57.6463 19.3671 58.4515C18.7587 58.2502 17.7447 57.8476 17.1363 57.6463C15.7167 57.0424 13.6887 57.0424 12.2691 57.6463C11.6607 57.8476 10.8496 58.2502 10.0384 58.4515C10.0384 57.6463 10.2412 56.6398 10.2412 56.2371C10.444 55.4319 11.0523 53.8214 11.4579 53.2175C11.6607 53.0162 11.4579 52.6136 11.2551 52.6136C11.0523 52.4123 10.6468 52.6136 10.6468 52.8149C10.6468 52.8149 9.63276 55.0293 9.42996 56.0358C9.22716 56.6398 9.22716 58.0489 9.02436 58.8542C9.02436 58.8542 8.82156 58.8542 8.82156 59.0555C8.82156 59.0555 6.79357 60.8672 5.77958 61.6725C5.57678 61.8738 4.96838 62.4777 4.35999 63.0816C4.76558 61.0686 5.37398 58.8542 6.38797 57.0424ZM4.56278 65.0947C5.57678 64.2895 6.59077 63.283 6.99637 62.8803C7.80757 62.0751 9.22716 60.8672 9.83556 60.4646C10.444 60.2633 12.0663 59.6594 12.8775 59.2568C13.6887 58.8542 15.3111 58.8542 16.1223 59.2568C17.1363 59.6594 18.7587 60.2633 19.1643 60.4646C19.5699 60.8672 21.1923 62.2764 22.0035 62.8803C22.4091 63.283 23.6259 64.2895 24.4371 65.0947C21.5979 65.296 16.9335 65.9 14.2971 65.9C11.6607 65.9 7.19917 65.4974 4.56278 65.0947Z" fill="black"/>
</svg>
