<svg width="52" height="64" viewBox="0 0 52 64" fill="none" xmlns="http://www.w3.org/2000/svg">
<g clip-path="url(#clip0)">
<path d="M39.5439 29.8272C35.985 22.321 29.0648 11.0618 29.0648 11.0618C29.0648 11.0618 29.8557 8.88894 30.2511 7.70376C30.6466 6.51857 32.0306 3.16055 30.6466 1.77783C29.2625 0.395114 27.4831 0.592645 26.6922 2.37042C26.4945 2.76548 25.9013 3.75314 25.9013 3.75314C25.9013 3.75314 25.3082 2.76548 25.1104 2.37042C24.3196 0.790175 22.3424 0.395114 21.1561 1.77783C19.772 3.16055 21.3538 6.51857 21.5515 7.70376C21.9469 8.88894 22.7378 11.0618 22.7378 11.0618C22.7378 11.0618 15.8177 22.321 12.2587 29.8272C8.6998 37.5309 0.98877 56.4939 0.98877 56.4939C0.98877 56.4939 6.32717 59.6544 12.061 61.2346C17.7949 63.0124 25.9013 63.0124 25.9013 63.0124C25.9013 63.0124 34.0078 63.0124 39.7416 61.2346C45.4755 59.4568 50.8139 56.4939 50.8139 56.4939C50.8139 56.4939 43.1028 37.5309 39.5439 29.8272Z" fill="white"/>
<path d="M51.8022 56.0988C51.8022 55.9012 43.8935 36.9383 40.5322 29.4321C37.3688 22.716 31.6349 13.037 30.2509 10.8642C30.4486 10.0741 31.0418 8.69135 31.2395 7.90123C31.2395 7.7037 31.4372 7.50617 31.4372 7.30864C32.0303 5.53086 33.0189 2.76543 31.4372 0.98765C30.6463 -4.17233e-06 29.46 -0.395066 28.4714 -0.197535C27.4828 -4.17233e-06 26.4942 0.592588 25.9011 1.58024C25.3079 0.592588 24.517 -0.197535 23.3307 -0.197535C22.1444 -0.395066 21.1558 -4.17233e-06 20.365 0.98765C18.7832 2.5679 19.7718 5.53086 20.365 7.30864C20.365 7.50617 20.5627 7.7037 20.5627 7.90123C20.7604 8.69135 21.3535 10.0741 21.5513 10.8642C20.3649 13.037 14.4334 22.5185 11.2699 29.4321C7.90867 36.9383 0.197648 55.9012 -7.07358e-05 56.0988C-0.197789 56.4938 -7.07433e-05 57.0864 0.395367 57.2839C0.593085 57.4815 5.93149 60.4444 11.6653 62.2222C17.3992 64 25.5056 64 25.7034 64C26.0988 64 34.0075 63.8025 39.7414 62.2222C45.4752 60.4444 50.8136 57.4815 51.0113 57.2839C51.8022 57.0864 51.9999 56.4938 51.8022 56.0988ZM21.9467 2.5679C22.3421 2.17283 22.7376 1.9753 23.133 1.9753C23.5284 1.9753 23.9239 2.37037 24.3193 2.96296C24.517 3.35802 25.1102 4.34567 25.1102 4.34567C25.5056 4.93827 26.4942 4.93827 26.6919 4.34567C26.6919 4.34567 27.4828 3.16049 27.4828 2.96296C27.8783 2.37037 28.2737 1.9753 28.6691 1.9753C29.0646 1.9753 29.6577 2.17283 30.0532 2.5679C30.844 3.35802 29.8554 5.92592 29.6577 6.91358C29.6577 7.11111 29.46 7.30864 29.46 7.50617C29.2623 8.49382 28.4714 10.2716 28.4714 10.6667C27.8783 10.8642 27.0874 11.0617 26.0988 11.0617C25.1102 11.0617 24.3193 10.8642 23.7262 10.6667C23.5284 10.2716 22.9353 8.49382 22.7376 7.50617C22.7376 7.30864 22.5399 7.11111 22.5399 6.91358C21.9467 5.92592 21.1558 3.35802 21.9467 2.5679ZM39.5437 60.2469C34.0075 61.8271 26.0988 62.0247 26.0988 62.0247C26.0988 62.0247 17.9923 61.8271 12.4562 60.2469C8.10639 59.0617 3.9543 56.8889 2.37255 55.9012C3.9543 52.1481 10.2813 36.7407 13.4448 30.2222C16.806 22.9136 23.5284 12.0494 23.7262 11.6543C24.3193 11.8518 25.3079 12.0494 26.0988 12.0494C26.8897 12.0494 27.6805 11.8518 28.2737 11.6543C28.6691 12.0494 35.1938 22.9136 38.5551 30.2222C41.7186 36.7407 48.0456 52.1481 49.6273 55.9012C48.0456 56.8889 43.8935 59.0617 39.5437 60.2469Z" fill="black"/>
</g>
<defs>
<clipPath id="clip0">
<rect width="52" height="64" fill="white"/>
</clipPath>
</defs>
</svg>
