<svg xmlns="http://www.w3.org/2000/svg" viewBox="0 0 19.33 30.16"><defs><style>.cls-1{fill:#fff;}.cls-2{fill:#262424;}</style></defs><title>Ресурс 3</title><g id="Слой_2" data-name="Слой 2"><g id="Слой_1-2" data-name="Слой 1"><path class="cls-1" d="M15.42,15.11C14.76,12.88,11.77,4,11.77,4a12.45,12.45,0,0,0,1-2.19A1.44,1.44,0,0,0,11.35.5c-1,0-1.68,1.17-1.68,1.17S9,.47,8,.5A1.44,1.44,0,0,0,6.59,1.83,12.45,12.45,0,0,0,7.56,4s-3,8.86-3.65,11.08S.5,27.19.5,27.19l.71.43v.85s1.85.47,3.65.81a22.12,22.12,0,0,0,4.81.38,22.12,22.12,0,0,0,4.81-.38c1.8-.33,3.65-.81,3.65-.81v-.85l.71-.43S16.09,17.33,15.42,15.11Z"/><path class="cls-2" d="M19.31,27.05c0-.1-2.76-9.88-3.41-12.09h0c-.6-2-3.13-9.56-3.58-10.9a8.11,8.11,0,0,0,.92-2.24A1.93,1.93,0,0,0,11.36,0a2.22,2.22,0,0,0-1.7.84A2.3,2.3,0,0,0,8,0,1.93,1.93,0,0,0,6.09,1.83,8.11,8.11,0,0,0,7,4.07C6.57,5.4,4,12.94,3.43,15,2.77,17.17,0,27,0,27.05a.5.5,0,0,0,.22.56l.47.28v.57a.5.5,0,0,0,.38.48s1.88.48,3.68.81a24.4,24.4,0,0,0,4.24.4l.62,0a22.5,22.5,0,0,0,4.93-.39c1.8-.33,3.66-.81,3.68-.81a.5.5,0,0,0,.38-.48V27.9l.47-.28A.5.5,0,0,0,19.31,27.05ZM8,1c.57,0,1.08.65,1.23.91a.52.52,0,0,0,.87,0c.15-.26.69-.9,1.23-.91a1,1,0,0,1,.91.8,12.41,12.41,0,0,1-.87,1.91,13.35,13.35,0,0,1-1.82.22A9.67,9.67,0,0,1,8,3.72a13.47,13.47,0,0,1-.87-1.9A.94.94,0,0,1,8,1Zm9.86,26.18a.5.5,0,0,0-.24.43v.46c-.63.15-2,.47-3.24.7a22.12,22.12,0,0,1-4.75.37,21.88,21.88,0,0,1-4.69-.37c-1.29-.24-2.61-.55-3.24-.7v-.46a.5.5,0,0,0-.24-.43L1.08,27c.5-1.81,2.72-9.75,3.31-11.7S7.42,6,7.93,4.48a9.85,9.85,0,0,0,1.62.2,13.24,13.24,0,0,0,1.84-.21c.5,1.5,3,8.8,3.54,10.78s2.8,9.9,3.31,11.7Z"/><line class="cls-1" x1="1.21" y1="28.46" x2="8.98" y2="4.39"/><rect class="cls-2" x="-7.55" y="16.05" width="25.29" height="0.75" transform="translate(-12.11 16.23) rotate(-72.11)"/><line class="cls-1" x1="18.15" y1="28.46" x2="10.38" y2="4.39"/><rect class="cls-2" x="13.89" y="3.78" width="0.75" height="25.29" transform="translate(-4.36 5.18) rotate(-17.89)"/><rect class="cls-1" x="9.07" y="3.74" width="1.31" height="1.31" rx="0.43" ry="0.43" transform="translate(5.96 -5.59) rotate(45)"/><path class="cls-2" d="M9.73,5.39a.67.67,0,0,1-.48-.2l-.32-.32a.68.68,0,0,1,0-1l.32-.33a.69.69,0,0,1,1,0l.32.33a.68.68,0,0,1,0,1l-.32.32A.67.67,0,0,1,9.73,5.39Zm0-1.5a.18.18,0,0,0-.12.05l-.32.33a.18.18,0,0,0,0,.25l.32.32a.18.18,0,0,0,.25,0l.32-.32a.18.18,0,0,0,0-.25l-.32-.33A.18.18,0,0,0,9.73,3.89Z"/></g></g></svg>