<svg width="51" height="71" viewBox="0 0 51 71" fill="none" xmlns="http://www.w3.org/2000/svg">
<g clip-path="url(#clip0)">
<path d="M41.6759 29.7121C36.1389 14.8081 26.9815 10.2721 26.9815 10.2721C26.9815 10.2721 28.6852 6.60012 29.537 4.65613C30.8148 0.768137 26.7685 0.552138 25.7037 1.41614C24.8519 2.06413 24.213 2.92813 24.213 2.92813C24.213 2.92813 23.5741 2.06413 22.5093 1.41614C21.4444 0.768137 17.3981 0.768137 18.6759 4.65613C19.3148 6.60012 21.2315 10.2721 21.2315 10.2721C21.2315 10.2721 14.4167 13.0801 6.53704 29.7121C1.21296 41.16 1 62.76 1 62.76C1 62.76 8.02778 66 24 66C40.8241 66 47 62.76 47 62.76C47 62.76 46.1481 41.592 41.6759 29.7121Z" fill="white"/>
<path d="M24.1067 67C8.10667 67 0.853333 63.9828 0.64 63.7673C0.213333 63.5518 0 63.1208 0 62.6897C0 61.8277 0.213333 40.9229 5.54667 29.2851C11.9467 15.9233 17.4933 11.3975 19.84 9.88893C19.2 8.59585 18.3467 6.44071 17.7067 4.93212C17.0667 2.56147 17.92 1.26839 18.7733 0.837364C20.0533 -0.240203 22.1867 -0.240203 23.2533 0.621851C23.68 0.837364 23.8933 1.05288 24.1067 1.26839C24.32 1.05288 24.7467 0.837364 24.96 0.621851C26.0267 -0.0246896 28.16 -0.240203 29.44 0.837364C30.08 1.26839 31.1467 2.56147 30.2933 5.14763C29.8667 6.65623 28.8 8.81136 28.16 10.1044C30.72 11.613 37.76 17.0009 42.4533 29.5007C46.9333 41.3539 48 62.0432 48 62.9052C48 63.3363 47.7867 63.7673 47.36 63.9828C47.5733 63.9828 41.1733 67 24.1067 67ZM2.13333 62.0432C4.26667 62.6897 11.3067 64.8449 24.1067 64.8449C37.5467 64.8449 44.16 62.9052 46.08 62.0432C45.8667 58.1639 44.5867 40.4918 40.7467 30.1472C35.4133 15.9233 26.6667 11.3975 26.6667 11.3975C26.4533 11.182 26.24 10.9665 26.0267 10.751C26.0267 10.5355 26.0267 10.1044 26.0267 9.88893C26.0267 9.88893 27.7333 6.2252 28.3733 4.50109C28.5867 3.63904 28.5867 2.9925 28.16 2.56147C27.52 2.13045 26.4533 2.13045 26.0267 2.34596C25.3867 2.77699 24.7467 3.63904 24.7467 3.63904C24.5333 3.85455 24.1067 4.07007 23.8933 4.07007C23.4667 4.07007 23.2533 3.85455 23.04 3.63904C23.04 3.63904 22.6133 2.9925 21.9733 2.56147C21.76 2.34596 20.48 2.13045 19.84 2.77699C19.6267 2.77699 19.6267 3.42353 19.84 4.28558C20.48 6.2252 22.1867 9.67342 22.1867 9.67342C22.4 9.88893 22.4 10.32 22.1867 10.5355C21.9733 10.751 21.76 10.9665 21.5467 11.182C21.5467 11.182 14.9333 14.1992 7.46667 30.1472C2.77333 40.0608 2.13333 58.1639 2.13333 62.0432Z" fill="black"/>
</g>
<defs>
<clipPath id="clip0">
<rect width="51" height="71" fill="white"/>
</clipPath>
</defs>
</svg>
