<svg xmlns="http://www.w3.org/2000/svg" viewBox="0 0 22.83 30.37"><defs><style>.cls-1{fill:#fff;}.cls-2{fill:#262424;}</style></defs><title>Ресурс 2</title><g id="Слой_2" data-name="Слой 2"><g id="Слой_1-2" data-name="Слой 1"><path class="cls-1" d="M19.71,13.8c-2.65-6.93-6.88-9-6.88-9A27.87,27.87,0,0,0,14,2.18C14.56.41,12.7.31,12.16.67a2.79,2.79,0,0,0-.7.7,2.47,2.47,0,0,0-.7-.7C10.23.33,8.37.41,9,2.18A27.89,27.89,0,0,0,10.11,4.8s-3.19,1.27-6.88,9C.68,19.13.64,29.15.64,29.15A21.5,21.5,0,0,0,3.79,30c.32.06,2.76-4.44,4.67-8.83,1.76-4.06,3-8,3-8s1.22,3.78,2.83,7.69c1.9,4.58,4.26,9.39,4.6,9.25a9.46,9.46,0,0,1,3.39-.91S21.81,19.32,19.71,13.8Z"/><path class="cls-1" d="M.5,28.59c0-1.2,4.84-2.17,11.1-2.17s10.69,1,10.69,2.17"/><path class="cls-2" d="M1,28.6H0c0-2.11,7.29-2.67,11.6-2.67,1.15,0,11.19.07,11.19,2.67h-1c-.08-.49-3.14-1.67-10.19-1.67C4.89,26.92,1.19,28,1,28.6Z"/><path class="cls-1" d="M14.1,11l-2.64-.81v0h-.07v0L8.8,11,7.13,19.64s1,.15,2.1.36a13.31,13.31,0,0,0,2.23.15A12.53,12.53,0,0,0,13.7,20c1.14-.21,2.1-.36,2.1-.36Z"/><path class="cls-2" d="M11.29,20.65a13,13,0,0,1-2.14-.16c-1.12-.21-2.08-.36-2.09-.36l-.51-.08,1.82-9.43,2.53-.79V9.52l.53.15.51-.16,0,.32,2.59.8L16.39,20l-.51.08s-1,.15-2.09.36a12.56,12.56,0,0,1-2.18.16h-.32ZM7.72,19.23l1.6.28a12.83,12.83,0,0,0,2.13.14h.15a11.17,11.17,0,0,0,2-.14l1.6-.28L13.67,11.4l-2.24-.69-2.2.69Z"/><path class="cls-1" d="M9.68,4.93s2.31,11,4.06,14.88,5.13,10.06,5.13,10.06a17.3,17.3,0,0,0,3.15-.6c.43-.28.28-1.34.28-1.34s-.67-6.69-1.68-11.12c-.69-3-2.84-7.58-4.15-8.83a28.51,28.51,0,0,0-2.92-2.73C12.82,4.8,9.68,4.93,9.68,4.93Z"/><path class="cls-2" d="M18.86,30.37a.5.5,0,0,1-.44-.26c0-.06-3.4-6.25-5.14-10.1s-4-14.53-4.1-15a.5.5,0,0,1,.47-.6c.77,0,3.36-.1,4.16.39a13.66,13.66,0,0,1,2,1.83c.33.33.52.86.84,1.16,1.38,1.31,3.48,5.9,4.19,9,1,4.41,1.92,11,1.93,11.08,0,.3.15,1.38-.5,1.8a13.88,13.88,0,0,1-3.37.68Zm-8.57-25c.5,2.32,2.42,10.91,3.9,14.19s4.25,8.45,4.95,9.73a14.66,14.66,0,0,0,2.61-.49A1.78,1.78,0,0,0,21.8,28c0-.09-.68-6.73-1.67-11.08-.66-2.9-2.76-7.4-4-8.58-.33-.31-.66-.65-1-1a13.66,13.66,0,0,0-1.84-1.68A9.5,9.5,0,0,0,10.29,5.41Z"/><path class="cls-1" d="M13.15,4.93s-2.31,11-4.06,14.88S4,29.87,4,29.87a17.3,17.3,0,0,1-3.15-.6C.38,29,.53,27.93.53,27.93S1.2,21.24,2.21,16.8C2.9,13.78,5,9.22,6.36,8A28.51,28.51,0,0,1,9.27,5.24C10,4.8,13.15,4.93,13.15,4.93Z"/><path class="cls-2" d="M4,30.37H3.9a13.9,13.9,0,0,1-3.37-.68c-.65-.42-.55-1.5-.5-1.83A60.21,60.21,0,0,1,1.72,16.69c.93-3,3.45-7.59,4.83-8.91.32-.3.35-.34.68-.67A18.84,18.84,0,0,1,9.19,5a10.64,10.64,0,0,1,4-.6.5.5,0,0,1,.47.6c-.09.45-2.34,11.1-4.1,15S4.43,30,4.4,30.11A.5.5,0,0,1,4,30.37Zm8.17-25a8.19,8.19,0,0,0-2.6.26A13.66,13.66,0,0,0,7.7,7.34c-.33.34-.67.68-1,1-1.25,1.19-3.08,5.14-4.18,7.91C.78,20.6,1.17,27.84,1,28s0,.78.07.88a15.55,15.55,0,0,0,2.59.47c.69-1.28,3.44-6.4,4.95-9.73S12,7.73,12.53,5.41Z"/><path class="cls-2" d="M20.17,13.62c-2.22-5.81-5.51-8.29-6.69-9a23.15,23.15,0,0,0,1-2.26,1.62,1.62,0,0,0-.44-2,2,2,0,0,0-2.14-.1,3.1,3.1,0,0,0-.41.34A2.75,2.75,0,0,0,11,.25,2.05,2.05,0,0,0,8.9.38a1.62,1.62,0,0,0-.42,2,23.11,23.11,0,0,0,1,2.25c-1.05.66-3.72,2.81-6.67,9C.21,19,.14,28.73.14,29.14a.5.5,0,0,0,.3.46c.08,0,.31.41,3.21.71l1.09-.83S1.67,29,1.14,28.8c0-1.8.33-10.17,2.54-14.79,3.53-7.4,6.59-8.74,6.62-8.75a.5.5,0,0,0,.26-.69A27.54,27.54,0,0,1,9.43,2c-.14-.42-.11-.71.08-.85a1.11,1.11,0,0,1,1-.07,2,2,0,0,1,.54.54.5.5,0,0,0,.42.24.54.54,0,0,0,.43-.23,2.32,2.32,0,0,1,.56-.56,1.08,1.08,0,0,1,1,.07c.2.15.23.44.09.87a27.51,27.51,0,0,1-1.13,2.55.5.5,0,0,0,.23.67s4.57,1.92,7.1,8.55c1.83,4.8,2,13.23,2.07,15a11.54,11.54,0,0,1-2.65.52l.11,1a9.63,9.63,0,0,0,3.28-.72.5.5,0,0,0,.28-.47C22.77,28.72,22.28,19.15,20.17,13.62Z"/></g></g></svg>