<svg id="Слой_1" data-name="Слой 1" xmlns="http://www.w3.org/2000/svg" viewBox="0 0 48.19 48.19"><defs><style>.cls-1{fill:#fff;}.cls-2{fill:#262424;}</style></defs><title>Монтажная область 3 копия</title><path class="cls-1" d="M32.33,22.34c-2.65-6.93-6.88-9-6.88-9a27.87,27.87,0,0,0,1.15-2.62c.59-1.77-1.28-1.87-1.81-1.51a2.79,2.79,0,0,0-.7.7,2.47,2.47,0,0,0-.7-.7c-.54-.35-2.4-.26-1.81,1.51a27.89,27.89,0,0,0,1.15,2.62s-3.19,1.27-6.88,9c-2.55,5.33-2.59,15.35-2.59,15.35s3.32,1.45,10.83,1.45c7.93,0,10.83-1.45,10.83-1.45S34.44,27.86,32.33,22.34Z"/><path class="cls-2" d="M24.09,39.64c-7.53,0-10.89-1.43-11-1.49a.5.5,0,0,1-.3-.46c0-.41.07-10.19,2.64-15.56,3-6.19,5.62-8.34,6.67-9a23.11,23.11,0,0,1-1-2.25,1.62,1.62,0,0,1,.42-2,2.05,2.05,0,0,1,2.14-.12,2.75,2.75,0,0,1,.43.35,3.1,3.1,0,0,1,.41-.34,2,2,0,0,1,2.14.1,1.62,1.62,0,0,1,.44,2,23.15,23.15,0,0,1-1,2.26c1.18.74,4.48,3.21,6.69,9,2.11,5.53,2.6,15.1,2.62,15.5a.5.5,0,0,1-.28.47C35,38.2,32.05,39.64,24.09,39.64Zm-10.32-2.3a32.76,32.76,0,0,0,10.32,1.3c6.31,0,9.4-.94,10.31-1.28-.11-1.8-.71-10-2.54-14.84h0c-2.53-6.64-6.59-8.71-6.64-8.73a.5.5,0,0,1-.23-.67,27.51,27.51,0,0,0,1.13-2.55c.14-.42.11-.72-.09-.87a1.08,1.08,0,0,0-1-.07,2.32,2.32,0,0,0-.56.56.54.54,0,0,1-.43.23.5.5,0,0,1-.42-.24,2,2,0,0,0-.54-.54,1.11,1.11,0,0,0-1,.07c-.19.15-.22.44-.08.85a27.54,27.54,0,0,0,1.13,2.55.5.5,0,0,1-.26.69s-3.08,1.36-6.62,8.75C14.1,27.18,13.81,35.55,13.77,37.35Z"/></svg>