<svg id="Слой_1" data-name="Слой 1" xmlns="http://www.w3.org/2000/svg" viewBox="0 0 48.19 48.19"><defs><style>.cls-1{fill:#fff;}.cls-2{fill:#262424;}</style></defs><title>Монтажная область 3 копия 2</title><path class="cls-1" d="M31,23c-1.8-3.84-5.28-9.51-5.28-9.51s.4-1.11.57-1.68.89-2.27.24-3a1.19,1.19,0,0,0-2,.28c-.08.16-.41.68-.41.68s-.33-.52-.41-.68a1.19,1.19,0,0,0-2-.28c-.65.71.07,2.4.24,3s.57,1.68.57,1.68S19,19.19,17.19,23s-5.73,13.45-5.73,13.45a30.72,30.72,0,0,0,5.64,2.42,31.4,31.4,0,0,0,7,.9,31.4,31.4,0,0,0,7-.9,30.72,30.72,0,0,0,5.64-2.42S32.79,26.86,31,23Z"/><path class="cls-2" d="M37.19,36.29c0-.1-4-9.67-5.74-13.48-1.6-3.41-4.54-8.3-5.18-9.35.13-.36.38-1.06.5-1.49l.09-.29c.3-.88.8-2.35,0-3.17a1.68,1.68,0,0,0-2.8.33,1.68,1.68,0,0,0-2.8-.33c-.76.83-.26,2.3,0,3.18l.09.28c.13.42.37,1.13.5,1.49-.64,1.06-3.58,5.95-5.18,9.35C15,26.62,11,36.19,11,36.29a.5.5,0,0,0,.22.62A30.89,30.89,0,0,0,17,39.37a31.5,31.5,0,0,0,7.14.92,31.49,31.49,0,0,0,7.13-.92A30.89,30.89,0,0,0,37,36.91.5.5,0,0,0,37.19,36.29ZM22,9.19a.75.75,0,0,1,.65-.28.77.77,0,0,1,.56.45c.09.17.44.72.44.72a.52.52,0,0,0,.84,0s.35-.55.44-.72a.77.77,0,0,1,.56-.45.75.75,0,0,1,.65.28c.36.39-.08,1.69-.25,2.18l-.1.32c-.15.49-.46,1.36-.54,1.59a3.28,3.28,0,0,1-2.35,0c-.08-.24-.4-1.1-.54-1.59l-.1-.32C22.11,10.88,21.67,9.58,22,9.19Zm8.92,29.23a31.11,31.11,0,0,1-6.85.88,31.11,31.11,0,0,1-6.86-.88,29.85,29.85,0,0,1-5.15-2.16c.77-1.88,4-9.69,5.55-13,1.74-3.7,5.09-9.2,5.24-9.44a3.72,3.72,0,0,0,2.41,0c.15.25,3.5,5.74,5.24,9.44,1.56,3.33,4.78,11.13,5.55,13A29.85,29.85,0,0,1,30.95,38.41Z"/></svg>