<svg id="Слой_1" data-name="Слой 1" xmlns="http://www.w3.org/2000/svg" viewBox="0 0 48.19 48.19"><defs><style>.cls-1{fill:#fff;}.cls-2{fill:#262424;}</style></defs><title>Монтажная область 3 копия 3</title><path class="cls-1" d="M28.62,34.58a21.59,21.59,0,0,0-2.27-3.76,33.19,33.19,0,0,1,.32-6c.44-1.77,1.35-4.88.49-7.06s-1.63-3.31-1.63-4.45S27.28,10,26.8,9s-1.63-.33-2.08-.14-.62.28-.62.28-.17-.09-.62-.28-1.61-.81-2.08.14,1.28,3.13,1.28,4.26-.78,2.27-1.63,4.45.05,5.3.49,7.06a33.19,33.19,0,0,1,.32,6,21.59,21.59,0,0,0-2.27,3.76A35.51,35.51,0,0,0,18,39.19s1.68.59,2.13.17,1,.08,1,.08,1.37.6,1.92.37a2.87,2.87,0,0,1,2,0,4.64,4.64,0,0,0,2-.22s.57-.66,1-.24,2.1-.17,2.1-.17A35.51,35.51,0,0,0,28.62,34.58Z"/><path class="cls-1" d="M18,39.19s4.17.5,6.12.5,6.12-.5,6.12-.5"/><path class="cls-1" d="M22.29,32.67a10,10,0,0,0-.59,1.52c-.09.47-.19,1.82-.19,1.82"/><path class="cls-1" d="M25.93,32.8a10,10,0,0,1,.59,1.52c.09.47.19,1.82.19,1.82"/><path class="cls-2" d="M30.7,39.06a35.56,35.56,0,0,0-1.62-4.69,21.67,21.67,0,0,0-2.23-3.73,31.06,31.06,0,0,1,.3-5.74l.1-.4c.49-1.91,1.22-4.8.37-7-.29-.75-.58-1.37-.82-1.92A6.32,6.32,0,0,1,26,13.28a5.39,5.39,0,0,1,.62-1.67c.51-1.06,1-2.07.61-2.82-.65-1.3-2.12-.64-2.61-.43l-.12.05-.43.19-.43-.19-.12-.05c-.48-.21-2-.87-2.61.43-.38.76.1,1.76.61,2.82a5.39,5.39,0,0,1,.62,1.67,6.31,6.31,0,0,1-.77,2.34c-.25.55-.53,1.17-.83,1.92-.85,2.17-.11,5.05.37,7l.1.4a31.06,31.06,0,0,1,.3,5.74,21.66,21.66,0,0,0-2.23,3.73,35.61,35.61,0,0,0-1.62,4.69.5.5,0,0,0,.22.55.48.48,0,0,0,.2,0v0c.17,0,4.22.5,6.18.5s6-.48,6.18-.5h0a.49.49,0,0,0,.2-.06A.5.5,0,0,0,30.7,39.06ZM20,34.78a21.26,21.26,0,0,1,2.21-3.66.5.5,0,0,0,.1-.29A33,33,0,0,0,22,24.67l-.1-.41c-.45-1.78-1.14-4.48-.41-6.35.29-.73.56-1.34.8-1.87a6.88,6.88,0,0,0,.86-2.76,5.55,5.55,0,0,0-.71-2.1c-.31-.65-.78-1.62-.62-1.94A.39.39,0,0,1,22.22,9a2.55,2.55,0,0,1,.92.28l.13.06c.4.17.56.25.58.26a.5.5,0,0,0,.48,0s.18-.1.58-.26L25,9.28c.91-.4,1.17-.32,1.31,0s-.31,1.29-.62,1.94a5.55,5.55,0,0,0-.71,2.1A6.88,6.88,0,0,0,25.88,16c.24.53.52,1.14.8,1.87.73,1.87,0,4.57-.41,6.36l-.1.4a33,33,0,0,0-.33,6.17.5.5,0,0,0,.1.29,21.21,21.21,0,0,1,2.21,3.66,29.11,29.11,0,0,1,1.06,2.84L28.5,37C28,36.52,27,35.64,27,35.64l-.09-.05c0-.44-.09-1-.15-1.31a10,10,0,0,0-.61-1.57.25.25,0,1,0-.45.22,9.34,9.34,0,0,1,.57,1.46c0,.22.09.64.12,1-.34-.11-.8-.28-1.1-.41a3.39,3.39,0,0,0-2.4,0c-.29.13-.75.29-1.09.4,0-.41.08-.9.13-1.15a9.36,9.36,0,0,1,.57-1.46.25.25,0,0,0-.45-.22,10,10,0,0,0-.61,1.57c-.06.32-.13,1-.16,1.43l-.11.06s-1,.89-1.49,1.32l-.73.67A29.23,29.23,0,0,1,20,34.78Zm-.89,4,1.24-1.13c.37-.35,1.13-1,1.37-1.22s1.07-.35,1.54-.55a2.43,2.43,0,0,1,1.61,0c.47.2,1.26.46,1.54.55s1,.87,1.37,1.22l1.24,1.13c-1.37.15-3.67.37-5,.37S20.51,39,19.14,38.81Z"/></svg>