<?xml version="1.0" encoding="utf-8"?>
<!-- Generator: Adobe Illustrator 21.0.0, SVG Export Plug-In . SVG Version: 6.00 Build 0)  -->
<svg version="1.1" id="Layer_1" xmlns="http://www.w3.org/2000/svg" xmlns:xlink="http://www.w3.org/1999/xlink" x="0px" y="0px"
	 viewBox="0 0 16 16" style="enable-background:new 0 0 16 16;" xml:space="preserve">
<style type="text/css">
	.st0{clip-path:url(#SVGID_2_);fill:#FEBE23;}
	.st1{clip-path:url(#SVGID_2_);fill:none;stroke:#FEBE23;stroke-width:0.5;stroke-miterlimit:10;}
	.st2{fill:#0E56A7;}
	.st3{fill:none;stroke:#FEBE23;stroke-width:0.7;stroke-miterlimit:10;}
</style>
<g>
	<defs>
		<rect id="SVGID_1_" x="-5.5" y="-5.5" width="94" height="132.9"/>
	</defs>
	<clipPath id="SVGID_2_">
		<use xlink:href="#SVGID_1_"  style="overflow:visible;"/>
	</clipPath>
	<path class="st0" d="M15.6,0.5c-0.1-0.1-0.2-0.1-0.3-0.1H4c-0.2,0-0.5,0.2-0.5,0.4L0.3,11.8c-0.1,0.2,0,0.5,0.2,0.6L5,15.6
		c0.1,0.1,0.2,0.1,0.4,0.1c0.1,0,0.2,0,0.3-0.1l6.1-3.1H11l-5.5,2.8c-0.1,0-0.3,0-0.3,0l-4.4-3.2c-0.1-0.1-0.1-0.2-0.1-0.3L3.8,0.8
		c0-0.1,0.1-0.2,0.2-0.2h11.2c0,0,0.1,0,0.1,0c0,0,0,0,0,0.1l-1.2,4.1c0,0.1-0.1,0.2-0.1,0.3l0,0l-0.3,1.2H14l0.3-1.2
		c0-0.1,0-0.1,0.1-0.2l1.2-4.1C15.6,0.7,15.6,0.6,15.6,0.5"/>
	<path class="st1" d="M15.6,0.5c-0.1-0.1-0.2-0.1-0.3-0.1H4c-0.2,0-0.5,0.2-0.5,0.4L0.3,11.8c-0.1,0.2,0,0.5,0.2,0.6L5,15.6
		c0.1,0.1,0.2,0.1,0.4,0.1c0.1,0,0.2,0,0.3-0.1l6.1-3.1H11l-5.5,2.8c-0.1,0-0.3,0-0.3,0l-4.4-3.2c-0.1-0.1-0.1-0.2-0.1-0.3L3.8,0.8
		c0-0.1,0.1-0.2,0.2-0.2h11.2c0,0,0.1,0,0.1,0c0,0,0,0,0,0.1l-1.2,4.1c0,0.1-0.1,0.2-0.1,0.3l0,0l-0.3,1.2H14l0.3-1.2
		c0-0.1,0-0.1,0.1-0.2l1.2-4.1C15.6,0.7,15.6,0.6,15.6,0.5z"/>
</g>
<polygon class="st2" points="10.9,2.6 6.4,6.5 6.4,6.5 7.6,2.6 6,2.6 3.5,11.3 5.1,11.3 6.2,7.4 6.2,7.4 8.6,11.3 10.6,11.3 8,6.9 
	12.8,2.6 "/>
<line class="st3" x1="11" y1="12.7" x2="16" y2="12.7"/>
</svg>
