<svg width="1145" height="335" viewBox="0 0 1145 335" fill="none" xmlns="http://www.w3.org/2000/svg">
<path d="M239.03 292.273C217.382 292.273 196.636 284.155 175.439 273.331C179.498 266.566 183.557 259.801 187.165 252.134C214.676 192.151 242.187 106.461 248.05 93.833C258.874 69.93 273.757 55.949 273.757 52.341C273.757 48.733 272.404 46.027 266.541 46.027C256.168 46.027 233.167 50.086 211.519 64.518C193.028 76.244 161.458 189.445 139.359 238.604C137.555 242.663 135.751 246.722 133.496 250.33C109.142 237.702 84.337 226.878 57.728 226.878C31.57 226.878 0 246.722 0 280.096C0 311.666 35.178 331.51 72.16 331.51C103.73 331.51 132.143 321.137 154.693 299.038C187.616 315.725 223.696 331.51 262.482 331.51C346.819 331.51 407.704 240.408 407.704 149.306C407.704 44.223 312.092 0.475983 243.54 0.475983C147.477 0.475983 51.865 52.341 51.865 119.54C51.865 155.169 99.671 177.719 123.574 177.719C129.888 177.719 133.045 175.464 133.045 169.15C133.045 163.287 110.946 154.718 110.946 127.207C110.946 72.636 159.203 26.183 242.638 26.183C297.209 26.183 349.525 59.106 349.525 134.874C349.525 212.446 303.974 292.273 239.03 292.273ZM60.885 261.154C77.121 261.154 95.161 268.37 115.456 278.292C100.122 296.332 83.435 303.999 63.591 303.999C49.159 303.999 36.982 295.881 36.982 283.704C36.982 271.527 46.904 261.154 60.885 261.154ZM532.511 285.508C532.511 248.977 565.885 210.642 565.885 190.347C565.885 178.621 558.218 168.699 547.394 168.699C536.57 168.699 530.256 174.562 509.961 174.562C499.137 174.562 491.019 171.405 491.019 165.091C491.019 157.875 496.882 150.659 496.882 138.933C496.882 129.913 481.548 115.481 468.92 115.481C458.096 115.481 442.762 130.364 442.762 148.855C442.762 171.405 457.645 182.229 457.645 182.229C444.566 224.623 426.526 250.781 418.408 262.507C417.055 264.762 413.447 269.272 413.447 273.331C413.447 277.841 418.408 282.802 422.918 282.802C428.33 282.802 431.487 277.841 432.84 276.037C442.311 262.056 459.449 234.545 476.587 190.798C476.587 190.798 503.647 192.602 503.647 201.622C503.647 215.603 475.234 246.722 475.234 286.41C475.234 311.215 498.235 331.51 532.511 331.51C577.16 331.51 610.083 276.037 610.083 276.037C610.083 276.037 614.142 269.272 614.142 265.213C614.142 260.252 609.632 256.193 604.671 256.193C599.259 256.193 595.651 262.507 595.651 262.507C595.651 262.507 571.748 301.293 547.394 301.293C538.374 301.293 532.511 295.881 532.511 285.508ZM649.581 243.565C649.581 220.113 675.288 173.66 700.093 173.66C705.054 173.66 708.211 176.817 708.211 182.68C708.211 201.622 682.504 243.565 649.581 243.565ZM770.9 276.037C770.9 276.037 774.959 269.272 774.959 265.213C774.959 260.252 770.449 256.193 765.488 256.193C760.076 256.193 756.468 262.507 756.468 262.507C756.468 262.507 729.859 303.999 687.014 303.999C665.366 303.999 647.326 288.665 647.326 262.056C647.326 262.056 659.503 264.762 664.464 264.762C721.29 264.762 737.977 219.662 737.977 198.014C737.977 174.111 715.878 150.659 688.367 150.659C649.13 150.659 591.853 196.21 591.853 265.213C591.853 303.548 624.776 331.51 670.327 331.51C738.879 331.51 770.9 276.037 770.9 276.037ZM828.367 206.583C828.367 225.074 842.348 253.938 842.348 276.939C842.348 297.234 831.073 314.823 817.092 314.823C800.856 314.823 794.993 289.567 794.993 263.409C794.993 257.546 828.367 206.583 828.367 206.583ZM955.549 276.037C955.549 276.037 959.608 269.272 959.608 265.213C959.608 260.252 955.098 256.193 950.137 256.193C944.725 256.193 941.117 262.507 941.117 262.507C941.117 262.507 920.822 292.273 885.193 301.744C885.193 301.744 895.566 290.469 895.566 267.468C895.566 239.957 877.977 225.074 877.977 189.445C877.977 177.268 888.801 165.993 888.801 159.679C888.801 155.169 876.173 142.992 866.702 142.992C855.427 142.992 840.995 153.816 819.798 185.386C799.052 217.407 789.581 232.29 789.581 232.29C789.581 232.29 746.285 242.212 746.285 268.37C746.285 294.979 783.267 334.667 827.916 334.667C920.371 334.667 955.549 276.037 955.549 276.037ZM1012.91 206.583C1012.91 225.074 1026.89 253.938 1026.89 276.939C1026.89 297.234 1015.61 314.823 1001.63 314.823C985.396 314.823 979.533 289.567 979.533 263.409C979.533 257.546 1012.91 206.583 1012.91 206.583ZM1140.09 276.037C1140.09 276.037 1144.15 269.272 1144.15 265.213C1144.15 260.252 1139.64 256.193 1134.68 256.193C1129.27 256.193 1125.66 262.507 1125.66 262.507C1125.66 262.507 1105.36 292.273 1069.73 301.744C1069.73 301.744 1080.11 290.469 1080.11 267.468C1080.11 239.957 1062.52 225.074 1062.52 189.445C1062.52 177.268 1073.34 165.993 1073.34 159.679C1073.34 155.169 1060.71 142.992 1051.24 142.992C1039.97 142.992 1025.54 153.816 1004.34 185.386C983.592 217.407 974.121 232.29 974.121 232.29C974.121 232.29 930.825 242.212 930.825 268.37C930.825 294.979 967.807 334.667 1012.46 334.667C1104.91 334.667 1140.09 276.037 1140.09 276.037Z" fill="#FFE8E7" fill-opacity="0.25"/>
</svg>
