<svg width="771" height="356" viewBox="0 0 771 356" fill="none" xmlns="http://www.w3.org/2000/svg">
<path d="M216.747 170.201C214.166 195.301 210.296 218.172 205.135 238.814C215.691 234.592 224.37 229.666 231.173 224.036C237.976 218.172 243.605 211.721 248.062 204.684C248.297 203.98 248.883 203.159 249.822 202.221C250.291 201.752 250.994 201.283 251.933 200.813C252.871 200.11 253.927 199.758 255.099 199.758C257.211 199.758 258.97 200.462 260.377 201.869C261.785 203.276 262.489 204.918 262.489 206.795C262.489 208.202 262.019 209.844 261.081 211.721C260.612 212.659 260.143 213.598 259.674 214.536C254.044 223.45 246.42 231.66 236.803 239.166C227.42 246.438 214.753 253.241 198.802 259.574C193.876 274.352 188.011 287.606 181.209 299.335C174.64 311.298 167.369 321.384 159.393 329.595C151.652 337.805 143.325 344.138 134.411 348.595C125.497 353.052 116.232 355.28 106.614 355.28C97.4656 355.28 89.1382 353.873 81.6318 351.058C74.1254 348.243 67.6747 344.49 62.2794 339.799C56.8842 335.342 52.6619 330.298 49.6124 324.669C46.7976 319.039 45.3901 313.409 45.3901 307.779C45.3901 298.631 48.3223 290.89 54.1866 284.556C60.2856 278.223 68.2611 272.828 78.1132 268.371C88.1999 264.148 99.694 260.747 112.596 258.167C125.497 255.586 138.751 253.358 152.356 251.481L166.43 249.37C169.714 241.395 172.412 233.419 174.523 225.444C176.869 217.234 178.511 209.023 179.449 200.813C173.585 206.443 167.251 211.369 160.449 215.592C154.584 219.345 147.899 222.746 140.393 225.796C133.121 228.61 125.732 230.018 118.225 230.018C109.077 230.018 100.75 228.61 93.2432 225.796C85.7369 222.981 79.1688 218.993 73.539 213.832C68.1438 208.437 63.9215 202.104 60.872 194.832C57.8225 187.325 56.2978 178.881 56.2978 169.498C56.2978 157.769 58.0571 146.275 61.5757 135.015C52.6619 133.139 44.4518 130.676 36.9454 127.626C29.4391 124.577 22.9883 120.941 17.5931 116.719C12.1979 112.262 7.85824 107.336 4.5742 101.94C1.52473 96.5451 0 90.5635 0 83.9954C0 74.1433 2.81489 64.9949 8.44467 56.5502C14.0745 48.1056 20.7598 40.8338 28.5008 34.7348C36.2417 28.6359 44.0999 23.8271 52.0755 20.3085C60.051 16.7899 66.5018 15.0306 71.4278 15.0306C75.4156 15.0306 77.4095 16.3208 77.4095 18.9011C77.4095 20.5431 76.7058 21.9505 75.2983 23.1234C74.1254 24.2963 72.6007 25.5864 70.7241 26.9939C68.3784 28.8705 65.5635 31.0989 62.2794 33.6793C59.23 36.2596 56.2978 39.5436 53.4829 43.5314C50.668 47.2846 48.3223 51.8587 46.4457 57.254C44.5691 62.4146 43.6308 68.6308 43.6308 75.9026C43.6308 83.1744 45.8593 90.0943 50.3162 96.6624C54.7731 103.23 61.4584 108.508 70.3723 112.496C77.4095 97.2489 86.5579 82.8225 97.8174 69.2173C109.077 55.6119 121.158 43.7659 134.059 33.6793C147.195 23.358 160.449 15.2652 173.819 9.40083C187.19 3.3019 199.505 0.25243 210.765 0.25243C217.802 0.25243 224.253 1.54259 230.117 4.1229C236.216 6.46865 241.377 9.75269 245.599 13.975C250.056 17.9628 253.457 22.537 255.803 27.6976C258.149 32.6237 259.322 37.5497 259.322 42.4758C259.322 52.7971 255.569 63.4702 248.062 74.4952C240.556 85.2856 230.235 95.3723 217.098 104.755C203.962 113.904 188.363 121.645 170.301 127.978C152.473 134.312 133.004 137.947 111.892 138.886C109.546 147.565 108.373 156.596 108.373 165.979C108.373 177.239 110.836 185.801 115.762 191.665C120.923 197.529 128.078 200.462 137.226 200.462C143.325 200.462 149.424 198.819 155.523 195.535C161.622 192.017 167.134 188.146 172.06 183.924C177.925 179.233 183.437 173.72 188.598 167.387C191.413 158.707 194.697 150.966 198.45 144.164C201.734 138.299 205.604 132.904 210.061 127.978C214.753 123.052 220.031 120.589 225.895 120.589C229.883 120.589 233.049 121.762 235.395 124.108C237.976 126.219 239.266 129.62 239.266 134.312C239.266 138.768 238.093 143.225 235.747 147.682C233.401 151.905 230.821 155.658 228.006 158.942C224.722 162.93 220.969 166.683 216.747 170.201ZM214.284 23.4753C206.543 23.4753 198.098 26.1729 188.95 31.5681C179.801 36.7287 170.77 43.7659 161.856 52.6798C153.177 61.359 144.967 71.4457 137.226 82.9398C129.485 94.434 123.151 106.515 118.225 119.182C131.831 117.774 145.201 114.255 158.338 108.626C171.474 102.996 183.202 96.1933 193.524 88.2177C203.845 80.2422 212.172 71.7976 218.506 62.8837C224.839 53.7353 228.006 45.1734 228.006 37.1979C228.006 33.2101 226.833 29.9261 224.487 27.3458C222.142 24.7654 218.74 23.4753 214.284 23.4753ZM95.3544 333.113C99.5767 333.113 104.151 331.588 109.077 328.539C114.238 325.49 119.398 321.267 124.559 315.872C129.72 310.477 134.88 304.143 140.041 296.871C145.201 289.6 150.127 281.741 154.819 273.297L149.189 275.056C140.275 277.402 131.713 280.099 123.503 283.149C115.293 286.198 108.021 289.482 101.688 293.001C95.589 296.754 90.6629 300.742 86.9097 304.964C83.3911 309.187 81.6318 313.526 81.6318 317.983C81.6318 328.07 86.206 333.113 95.3544 333.113ZM361.037 38.6053C361.037 35.3213 359.63 33.6793 356.815 33.6793C353.531 33.6793 349.191 37.3152 343.796 44.5869C338.635 51.8587 333.123 61.359 327.258 73.0877C321.629 84.8164 315.999 97.9526 310.369 112.496C304.739 127.04 300.165 141.701 296.647 156.479C300.634 153.195 304.974 148.503 309.665 142.404C314.591 136.305 319.4 129.503 324.092 121.996C328.783 114.255 333.357 106.28 337.814 98.0699C342.271 89.8598 346.142 82.0015 349.426 74.4952C352.944 66.7542 355.759 59.717 357.87 53.3835C359.982 47.05 361.037 42.1239 361.037 38.6053ZM299.461 258.519C292.424 258.519 285.622 257.346 279.053 255C272.72 252.654 267.09 249.253 262.164 244.796C257.238 240.105 253.25 234.475 250.201 227.907C247.386 221.339 245.979 213.95 245.979 205.739C245.979 194.011 247.269 180.992 249.849 166.683C252.664 152.374 256.534 138.065 261.46 123.756C266.386 109.212 272.016 95.1377 278.35 81.5324C284.918 67.9271 292.072 55.8465 299.813 45.2907C307.554 34.5003 315.53 25.9383 323.74 19.6048C332.185 13.2713 340.629 10.1045 349.074 10.1045C353.062 10.1045 356.815 11.0428 360.333 12.9194C363.852 14.796 366.902 17.1418 369.482 19.9567C372.297 22.7716 374.525 25.9383 376.167 29.4569C377.809 32.741 378.63 35.9077 378.63 38.9572C378.63 43.8832 377.223 50.2167 374.408 57.9577C371.828 65.4641 368.309 73.6742 363.852 82.588C359.395 91.2672 354.117 100.298 348.018 109.681C342.154 119.064 335.938 128.213 329.37 137.126C323.036 145.806 316.585 154.016 310.017 161.757C303.449 169.263 297.233 175.479 291.369 180.405C290.899 183.22 290.43 186.152 289.961 189.202C289.492 191.782 289.14 194.714 288.906 197.998C288.671 201.048 288.554 204.097 288.554 207.147C288.554 215.357 290.43 222.042 294.184 227.203C298.171 232.364 303.801 234.944 311.073 234.944C315.764 234.944 320.339 233.419 324.795 230.37C329.487 227.32 333.592 223.802 337.111 219.814C341.333 215.592 345.203 210.548 348.722 204.684C348.957 203.98 349.543 203.159 350.481 202.221C350.95 201.752 351.654 201.283 352.592 200.813C353.531 200.11 354.586 199.758 355.759 199.758C357.636 199.758 359.278 200.462 360.685 201.869C362.327 203.276 363.148 204.918 363.148 206.795C363.148 207.733 362.914 208.672 362.445 209.61C362.21 210.314 361.858 211.135 361.389 212.073C360.92 213.011 360.451 214.067 359.982 215.24C354.821 223.45 349.074 230.722 342.74 237.055C337.345 242.45 330.894 247.376 323.388 251.833C316.116 256.29 308.141 258.519 299.461 258.519ZM527.162 215.24C522.002 223.45 516.255 230.722 509.921 237.055C504.526 242.45 498.075 247.376 490.569 251.833C483.297 256.29 475.322 258.519 466.642 258.519C456.79 258.519 448.463 256.056 441.66 251.13C434.857 245.969 430.87 238.463 429.697 228.61C425.005 234.475 419.962 239.518 414.567 243.74C409.875 247.494 404.597 250.895 398.733 253.944C392.869 256.994 386.535 258.519 379.733 258.519C375.041 258.519 370.467 257.58 366.01 255.704C361.788 254.062 358.034 251.599 354.75 248.315C351.701 245.031 349.238 241.16 347.361 236.703C345.485 232.246 344.546 227.32 344.546 221.925C344.546 209.258 346.892 196.708 351.584 184.276C356.51 171.843 362.843 160.701 370.584 150.849C378.325 140.762 387.004 132.67 396.622 126.571C406.239 120.472 415.857 117.422 425.474 117.422C432.512 117.422 438.493 118.361 443.419 120.237C448.345 121.879 452.333 123.756 455.383 125.867C458.901 128.447 461.716 131.145 463.827 133.96C466.408 133.96 469.105 134.312 471.92 135.015C474.97 135.484 477.667 136.423 480.013 137.83C482.593 139.003 484.704 140.645 486.347 142.756C487.989 144.867 488.81 147.448 488.81 150.497C488.81 153.078 487.754 157.3 485.643 163.164C483.532 169.029 481.186 175.597 478.606 182.868C476.025 189.906 473.679 197.295 471.568 205.036C469.457 212.542 468.402 219.227 468.402 225.092C468.402 227.907 469.223 230.252 470.865 232.129C472.741 234.006 475.204 234.944 478.254 234.944C482.945 234.944 487.519 233.419 491.976 230.37C496.668 227.32 500.773 223.802 504.291 219.814C508.514 215.592 512.384 210.548 515.903 204.684C516.137 203.98 516.724 203.159 517.662 202.221C518.131 201.752 518.835 201.283 519.773 200.813C520.712 200.11 521.767 199.758 522.94 199.758C524.817 199.758 526.459 200.462 527.866 201.869C529.508 203.276 530.329 204.918 530.329 206.795C530.329 207.733 530.095 208.672 529.625 209.61C529.391 210.314 529.039 211.135 528.57 212.073C528.101 213.011 527.632 214.067 527.162 215.24ZM445.531 152.96C445.531 147.8 444.24 144.046 441.66 141.701C439.314 139.12 436.382 137.83 432.864 137.83C427.703 137.83 422.425 140.528 417.03 145.923C411.635 151.318 406.709 158.004 402.252 165.979C398.029 173.72 394.511 182.165 391.696 191.313C388.881 200.462 387.473 208.672 387.473 215.943C387.473 226.499 390.875 231.777 397.677 231.777C401.9 231.777 406.709 228.962 412.104 223.332C417.734 217.703 423.011 210.783 427.938 202.573C432.864 194.363 436.969 185.801 440.253 176.887C443.771 167.738 445.531 159.763 445.531 152.96ZM662.492 219.814C662.492 211.838 663.43 204.567 665.306 197.998C667.183 191.43 669.177 185.449 671.288 180.054C673.634 174.658 675.745 169.615 677.622 164.924C679.498 160.232 680.436 155.892 680.436 151.905C680.436 149.559 679.85 147.917 678.677 146.979C677.504 145.806 675.98 145.219 674.103 145.219C670.115 145.219 664.72 148.972 657.917 156.479C651.115 163.751 644.781 174.658 638.917 189.202C633.756 201.634 630.003 213.129 627.657 223.684C625.312 234.006 624.139 243.271 624.139 251.481C624.139 254.531 623.435 256.407 622.027 257.111C620.855 258.049 618.978 258.519 616.398 258.519C607.015 258.519 599.157 256.759 592.823 253.241C586.489 249.488 583.323 244.796 583.323 239.166C583.323 231.894 584.378 224.153 586.489 215.943C588.601 207.499 590.946 199.289 593.527 191.313C596.342 183.338 598.805 175.948 600.916 169.146C603.027 162.343 604.083 156.831 604.083 152.608C604.083 147.682 601.971 145.219 597.749 145.219C593.527 145.219 588.601 147.565 582.971 152.257C577.576 156.948 572.415 163.868 567.489 173.016C562.798 181.93 558.81 193.072 555.526 206.443C552.242 219.579 550.6 234.592 550.6 251.481C550.6 254.531 549.896 256.407 548.488 257.111C547.316 258.049 545.439 258.519 542.859 258.519C533.476 258.519 525.617 256.759 519.284 253.241C512.95 249.488 509.784 244.796 509.784 239.166C509.784 228.845 510.957 218.172 513.302 207.147C515.414 196.122 517.994 185.566 521.043 175.479C524.093 165.393 527.142 156.127 530.192 147.682C533.476 139.238 536.173 132.552 538.285 127.626C540.161 123.169 543.328 120.941 547.785 120.941C550.365 120.941 553.766 121.996 557.989 124.108C562.211 126.219 567.02 131.497 572.415 139.941C577.341 135.719 582.502 131.966 587.897 128.682C592.588 125.867 597.749 123.287 603.379 120.941C609.243 118.595 615.225 117.422 621.324 117.422C629.065 117.422 635.164 119.885 639.621 124.811C644.077 129.737 647.596 135.954 650.176 143.46C655.572 138.768 661.201 134.429 667.066 130.441C671.992 127.157 677.504 124.225 683.603 121.645C689.937 118.83 696.388 117.422 702.956 117.422C706.005 117.422 709.055 118.243 712.104 119.885C715.388 121.293 718.32 123.287 720.901 125.867C723.481 128.213 725.475 130.91 726.882 133.96C728.524 137.009 729.345 140.059 729.345 143.108C729.345 147.8 728.172 153.195 725.827 159.294C723.715 165.393 721.252 171.961 718.437 178.998C715.623 185.801 713.042 192.838 710.697 200.11C708.585 207.381 707.53 214.536 707.53 221.573C707.53 225.561 708.468 228.845 710.345 231.425C712.456 233.771 715.271 234.944 718.789 234.944C723.481 234.944 728.055 233.419 732.512 230.37C737.203 227.32 741.308 223.802 744.827 219.814C749.049 215.592 752.92 210.548 756.438 204.684C756.673 203.98 757.26 203.159 758.198 202.221C758.667 201.752 759.371 201.283 760.309 200.813C761.247 200.11 762.303 199.758 763.476 199.758C765.352 199.758 766.994 200.462 768.402 201.869C770.044 203.276 770.865 204.918 770.865 206.795C770.865 207.733 770.63 208.672 770.161 209.61C769.927 210.314 769.575 211.135 769.106 212.073C768.636 213.011 768.167 214.067 767.698 215.24C762.537 223.45 756.79 230.722 750.457 237.055C745.062 242.45 738.611 247.376 731.104 251.833C723.833 256.29 715.857 258.519 707.178 258.519C693.807 258.519 683.017 255 674.807 247.963C666.597 240.691 662.492 231.308 662.492 219.814Z" fill="#FFE5E4" fill-opacity="0.25"/>
</svg>
